<?xml version="1.0" encoding="UTF-8" standalone="no"?>
<!-- Created with Inkscape (http://www.inkscape.org/) -->

<svg
   xmlns:dc="http://purl.org/dc/elements/1.1/"
   xmlns:cc="http://creativecommons.org/ns#"
   xmlns:rdf="http://www.w3.org/1999/02/22-rdf-syntax-ns#"
   xmlns:svg="http://www.w3.org/2000/svg"
   xmlns="http://www.w3.org/2000/svg"
   xmlns:sodipodi="http://sodipodi.sourceforge.net/DTD/sodipodi-0.dtd"
   xmlns:inkscape="http://www.inkscape.org/namespaces/inkscape"
   width="640"
   height="240"
   viewBox="0 0 169.33333 63.500002"
   version="1.1"
   id="svg8"
   inkscape:version="0.92.4 (5da689c313, 2019-01-14)"
   sodipodi:docname="logo MMB.svg">
  <defs
     id="defs2">
    <inkscape:path-effect
       effect="skeletal"
       id="path-effect5279"
       is_visible="true"
       pattern="#path815"
       copytype="repeated"
       prop_scale="1"
       scale_y_rel="false"
       spacing="0"
       normal_offset="0"
       tang_offset="0"
       prop_units="false"
       vertical_pattern="false"
       fuse_tolerance="0" />
    <inkscape:path-effect
       effect="skeletal"
       id="path-effect5277"
       is_visible="true"
       pattern="M 0,0 H 1"
       copytype="repeated"
       prop_scale="1"
       scale_y_rel="false"
       spacing="0"
       normal_offset="0"
       tang_offset="0"
       prop_units="false"
       vertical_pattern="false"
       fuse_tolerance="0" />
    <inkscape:path-effect
       effect="skeletal"
       id="path-effect1572"
       is_visible="true"
       pattern="M 0,0 H 1"
       copytype="repeated"
       prop_scale="1"
       scale_y_rel="false"
       spacing="0"
       normal_offset="0"
       tang_offset="0"
       prop_units="false"
       vertical_pattern="false"
       fuse_tolerance="0" />
  </defs>
  <sodipodi:namedview
     id="base"
     pagecolor="#ffffff"
     bordercolor="#666666"
     borderopacity="1.0"
     inkscape:pageopacity="0.0"
     inkscape:pageshadow="2"
     inkscape:zoom="2.8"
     inkscape:cx="97.713363"
     inkscape:cy="129.65116"
     inkscape:document-units="px"
     inkscape:current-layer="layer1"
     showgrid="false"
     units="px"
     showguides="false"
     inkscape:window-width="1920"
     inkscape:window-height="1012"
     inkscape:window-x="-8"
     inkscape:window-y="-8"
     inkscape:window-maximized="1" />
  <metadata
     id="metadata5">
    <rdf:RDF>
      <cc:Work
         rdf:about="">
        <dc:format>image/svg+xml</dc:format>
        <dc:type
           rdf:resource="http://purl.org/dc/dcmitype/StillImage" />
        <dc:title />
      </cc:Work>
    </rdf:RDF>
  </metadata>
  <g
     inkscape:label="Layer 1"
     inkscape:groupmode="layer"
     id="layer1"
     transform="translate(0,-233.49998)">
    <path
       style="fill:#ffcc00;fill-opacity:1;stroke:#000000;stroke-width:0.26458332px;stroke-linecap:butt;stroke-linejoin:miter;stroke-opacity:1"
       d="m 15.584789,249.97396 h 5.96556 v -3.08909 h 3.21712 v 3.08909 h 4.911073 v 1.58494 H 15.584789 Z"
       id="path815"
       inkscape:connector-curvature="0"
       sodipodi:nodetypes="cccccccc" />
    <path
       style="opacity:1;fill:#ffcc00;fill-opacity:1;fill-rule:nonzero;stroke:#000000;stroke-width:0.52916664;stroke-linecap:butt;stroke-linejoin:miter;stroke-miterlimit:4;stroke-dasharray:none;stroke-dashoffset:0;stroke-opacity:1;paint-order:markers fill stroke"
       d="m 71.666305,283.98844 c -1.624773,0.97952 -3.4053,1.63958 -5.252884,2.0029 l 0.58955,2.99077 c -1.168346,0.23178 -2.352773,0.36391 -3.53937,0.39994 l -0.08388,-3.05825 c -1.559306,0.0411 -3.131641,-0.11069 -4.667518,-0.44257 l 0.332709,-1.54267 c 4.059945,0.8813 8.38646,0.41062 11.809945,-1.71159 z m -12.954104,1.89279 c -1.865655,-0.40314 -3.677515,-1.07208 -5.346882,-1.98409 l -1.473707,2.69289 c -1.042264,-0.57301 -2.039666,-1.23007 -2.978297,-1.96762 l 1.889456,-2.40927 c -1.226529,-0.9612 -2.324071,-2.07883 -3.243139,-3.34021 l 1.274755,-0.93471 c 2.357203,3.28574 6.150578,5.51903 10.210523,6.40034 z m -11.152569,-7.0083 c -0.116407,-0.15977 -0.22995,-0.32184 -0.34053,-0.48619 -0.962114,-1.40898 -1.701241,-2.95291 -2.223927,-4.57289 l -2.919229,0.94317 c -0.36698,-1.13176 -0.643159,-2.28971 -0.829968,-3.46099 l 3.039069,-0.47797 c -0.243037,-1.5534 -0.306579,-3.14106 -0.195707,-4.71727 l 1.579849,0.11098 c -0.282459,4.00252 0.636438,8.07897 2.861588,11.28528 0.09834,0.14909 0.199576,0.29616 0.30361,0.44117 z M 44.08934,266.10079 c 0.134678,-1.91463 0.52671,-3.81236 1.166986,-5.61118 l -2.895691,-1.03383 c 0.401163,-1.11449 0.886867,-2.19885 1.455684,-3.24022 l 2.691034,1.46296 c 0.745339,-1.37342 1.655589,-2.64987 2.725669,-3.78359 l 1.147123,1.07859 c -2.8051,2.94451 -4.415455,7.05092 -4.710956,11.23825 z m 5.143682,-12.20586 c 0.397755,-0.42141 0.817593,-0.8231 1.259254,-1.20273 0.991636,-0.86695 2.084311,-1.59783 3.247322,-2.19417 l -1.391845,-2.71726 c 1.066206,-0.54463 2.174186,-0.9942 3.309534,-1.34943 l 0.906528,2.91947 c 1.48727,-0.4605 3.03994,-0.73338 4.606764,-0.82124 l 0.08914,1.57417 c -3.603065,0.19729 -7.112609,1.44602 -9.729723,3.78645 -0.403153,0.34005 -0.786524,0.70194 -1.149852,1.08333 z m 11.937557,-5.36536 c 1.903246,-0.10672 3.827375,0.0596 5.680533,0.49426 l 0.703287,-2.98847 c 1.155737,0.27438 2.290137,0.64064 3.388794,1.09807 l -1.170283,2.82708 c 1.440581,0.59504 2.799492,1.37028 4.025486,2.32314 l -0.962074,1.24199 c -3.174804,-2.48757 -7.437414,-3.64855 -11.576602,-3.4219 z"
       id="path817"
       inkscape:connector-curvature="0"
       inkscape:path-effect="#path-effect5279"
       inkscape:original-d="m 72.051348,284.63447 a 19.296225,19.919941 0 0 1 -25.454653,-5.82556 19.296225,19.919941 0 0 1 3.403168,-26.68517 19.296225,19.919941 0 0 1 26.047864,1.17403"
       transform="translate(0,0.75595239)" />
  </g>
</svg>
